<svg xmlns="http://www.w3.org/2000/svg" width="439.654" height="497" viewBox="0 0 439.654 497">
  <g id="Group_23" data-name="Group 23" transform="translate(-1493 -484)">
    <circle id="Ellipse_2" data-name="Ellipse 2" cx="19.115" cy="19.115" r="19.115" transform="translate(1779.731 541.346)" fill="#ebccff"/>
    <circle id="Ellipse_3" data-name="Ellipse 3" cx="19.115" cy="19.115" r="19.115" transform="translate(1779.731 484)" fill="#ebccff"/>
    <circle id="Ellipse_4" data-name="Ellipse 4" cx="19.115" cy="19.115" r="19.115" transform="translate(1837.077 598.692)" fill="#ebccff"/>
    <circle id="Ellipse_5" data-name="Ellipse 5" cx="19.115" cy="19.115" r="19.115" transform="translate(1894.423 598.692)" fill="#ebccff"/>
    <circle id="Ellipse_6" data-name="Ellipse 6" cx="19.115" cy="19.115" r="19.115" transform="translate(1837.077 541.346)" fill="#ebccff"/>
    <circle id="Ellipse_7" data-name="Ellipse 7" cx="19.115" cy="19.115" r="19.115" transform="translate(1837.077 484)" fill="#ebccff"/>
    <circle id="Ellipse_9" data-name="Ellipse 9" cx="19.115" cy="19.115" r="19.115" transform="translate(1894.423 541.346)" fill="#ebccff"/>
    <circle id="Ellipse_10" data-name="Ellipse 10" cx="19.115" cy="19.115" r="19.115" transform="translate(1894.423 484)" fill="#ebccff"/>
    <circle id="Ellipse_15" data-name="Ellipse 15" cx="19.115" cy="19.115" r="19.115" transform="translate(1779.731 598.692)" fill="#ebccff"/>
    <circle id="Ellipse_2-2" data-name="Ellipse 2" cx="19.115" cy="19.115" r="19.115" transform="translate(1779.731 885.423)" fill="#ebccff"/>
    <circle id="Ellipse_3-2" data-name="Ellipse 3" cx="19.115" cy="19.115" r="19.115" transform="translate(1779.731 828.077)" fill="#ebccff"/>
    <circle id="Ellipse_4-2" data-name="Ellipse 4" cx="19.115" cy="19.115" r="19.115" transform="translate(1837.077 942.769)" fill="#ebccff"/>
    <circle id="Ellipse_5-2" data-name="Ellipse 5" cx="19.115" cy="19.115" r="19.115" transform="translate(1894.423 942.769)" fill="#ebccff"/>
    <circle id="Ellipse_6-2" data-name="Ellipse 6" cx="19.115" cy="19.115" r="19.115" transform="translate(1837.077 885.423)" fill="#ebccff"/>
    <circle id="Ellipse_7-2" data-name="Ellipse 7" cx="19.115" cy="19.115" r="19.115" transform="translate(1837.077 828.077)" fill="#ebccff"/>
    <circle id="Ellipse_9-2" data-name="Ellipse 9" cx="19.115" cy="19.115" r="19.115" transform="translate(1894.423 885.423)" fill="#ebccff"/>
    <circle id="Ellipse_10-2" data-name="Ellipse 10" cx="19.115" cy="19.115" r="19.115" transform="translate(1894.423 828.077)" fill="#ebccff"/>
    <circle id="Ellipse_15-2" data-name="Ellipse 15" cx="19.115" cy="19.115" r="19.115" transform="translate(1779.731 942.769)" fill="#ebccff"/>
    <g id="Group_19" data-name="Group 19" transform="translate(1493 656.038)">
      <circle id="Ellipse_1" data-name="Ellipse 1" cx="19.115" cy="19.115" r="19.115" transform="translate(229.385)" fill="#ebccff"/>
      <circle id="Ellipse_2-3" data-name="Ellipse 2" cx="19.115" cy="19.115" r="19.115" transform="translate(0 57.346)" fill="#ebccff"/>
      <circle id="Ellipse_3-3" data-name="Ellipse 3" cx="19.115" cy="19.115" r="19.115" fill="#ebccff"/>
      <circle id="Ellipse_4-3" data-name="Ellipse 4" cx="19.115" cy="19.115" r="19.115" transform="translate(57.346 114.692)" fill="#ebccff"/>
      <circle id="Ellipse_5-3" data-name="Ellipse 5" cx="19.115" cy="19.115" r="19.115" transform="translate(114.692 114.692)" fill="#ebccff"/>
      <circle id="Ellipse_6-3" data-name="Ellipse 6" cx="19.115" cy="19.115" r="19.115" transform="translate(57.346 57.346)" fill="#ebccff"/>
      <circle id="Ellipse_7-3" data-name="Ellipse 7" cx="19.115" cy="19.115" r="19.115" transform="translate(57.346)" fill="#ebccff"/>
      <circle id="Ellipse_8" data-name="Ellipse 8" cx="19.115" cy="19.115" r="19.115" transform="translate(172.038 114.692)" fill="#ebccff"/>
      <circle id="Ellipse_9-3" data-name="Ellipse 9" cx="19.115" cy="19.115" r="19.115" transform="translate(114.692 57.346)" fill="#ebccff"/>
      <circle id="Ellipse_10-3" data-name="Ellipse 10" cx="19.115" cy="19.115" r="19.115" transform="translate(114.692)" fill="#ebccff"/>
      <circle id="Ellipse_11" data-name="Ellipse 11" cx="19.115" cy="19.115" r="19.115" transform="translate(229.385 114.692)" fill="#ebccff"/>
      <circle id="Ellipse_12" data-name="Ellipse 12" cx="19.115" cy="19.115" r="19.115" transform="translate(172.038 57.346)" fill="#ebccff"/>
      <circle id="Ellipse_13" data-name="Ellipse 13" cx="19.115" cy="19.115" r="19.115" transform="translate(172.038)" fill="#ebccff"/>
      <circle id="Ellipse_14" data-name="Ellipse 14" cx="19.115" cy="19.115" r="19.115" transform="translate(229.385 57.346)" fill="#ebccff"/>
      <circle id="Ellipse_15-3" data-name="Ellipse 15" cx="19.115" cy="19.115" r="19.115" transform="translate(0 114.692)" fill="#ebccff"/>
    </g>
    <g id="Group_20" data-name="Group 20" transform="translate(1493 484)">
      <circle id="Ellipse_1-2" data-name="Ellipse 1" cx="19.115" cy="19.115" r="19.115" transform="translate(229.385)" fill="#ebccff"/>
      <circle id="Ellipse_2-4" data-name="Ellipse 2" cx="19.115" cy="19.115" r="19.115" transform="translate(0 57.346)" fill="#ebccff"/>
      <circle id="Ellipse_3-4" data-name="Ellipse 3" cx="19.115" cy="19.115" r="19.115" fill="#ebccff"/>
      <circle id="Ellipse_4-4" data-name="Ellipse 4" cx="19.115" cy="19.115" r="19.115" transform="translate(57.346 114.692)" fill="#ebccff"/>
      <circle id="Ellipse_5-4" data-name="Ellipse 5" cx="19.115" cy="19.115" r="19.115" transform="translate(114.692 114.692)" fill="#ebccff"/>
      <circle id="Ellipse_6-4" data-name="Ellipse 6" cx="19.115" cy="19.115" r="19.115" transform="translate(57.346 57.346)" fill="#ebccff"/>
      <circle id="Ellipse_7-4" data-name="Ellipse 7" cx="19.115" cy="19.115" r="19.115" transform="translate(57.346)" fill="#ebccff"/>
      <circle id="Ellipse_8-2" data-name="Ellipse 8" cx="19.115" cy="19.115" r="19.115" transform="translate(172.038 114.692)" fill="#ebccff"/>
      <circle id="Ellipse_9-4" data-name="Ellipse 9" cx="19.115" cy="19.115" r="19.115" transform="translate(114.692 57.346)" fill="#ebccff"/>
      <circle id="Ellipse_10-4" data-name="Ellipse 10" cx="19.115" cy="19.115" r="19.115" transform="translate(114.692)" fill="#ebccff"/>
      <circle id="Ellipse_11-2" data-name="Ellipse 11" cx="19.115" cy="19.115" r="19.115" transform="translate(229.385 114.692)" fill="#ebccff"/>
      <circle id="Ellipse_12-2" data-name="Ellipse 12" cx="19.115" cy="19.115" r="19.115" transform="translate(172.038 57.346)" fill="#ebccff"/>
      <circle id="Ellipse_13-2" data-name="Ellipse 13" cx="19.115" cy="19.115" r="19.115" transform="translate(172.038)" fill="#ebccff"/>
      <circle id="Ellipse_14-2" data-name="Ellipse 14" cx="19.115" cy="19.115" r="19.115" transform="translate(229.385 57.346)" fill="#ebccff"/>
      <circle id="Ellipse_15-4" data-name="Ellipse 15" cx="19.115" cy="19.115" r="19.115" transform="translate(0 114.692)" fill="#ebccff"/>
    </g>
    <circle id="Ellipse_2-5" data-name="Ellipse 2" cx="19.115" cy="19.115" r="19.115" transform="translate(1779.731 713.385)" fill="#ebccff"/>
    <circle id="Ellipse_3-5" data-name="Ellipse 3" cx="19.115" cy="19.115" r="19.115" transform="translate(1779.731 656.038)" fill="#ebccff"/>
    <circle id="Ellipse_4-5" data-name="Ellipse 4" cx="19.115" cy="19.115" r="19.115" transform="translate(1837.077 770.731)" fill="#ebccff"/>
    <circle id="Ellipse_5-5" data-name="Ellipse 5" cx="19.115" cy="19.115" r="19.115" transform="translate(1894.423 770.731)" fill="#ebccff"/>
    <circle id="Ellipse_6-5" data-name="Ellipse 6" cx="19.115" cy="19.115" r="19.115" transform="translate(1837.077 713.385)" fill="#ebccff"/>
    <circle id="Ellipse_7-5" data-name="Ellipse 7" cx="19.115" cy="19.115" r="19.115" transform="translate(1837.077 656.038)" fill="#ebccff"/>
    <circle id="Ellipse_9-5" data-name="Ellipse 9" cx="19.115" cy="19.115" r="19.115" transform="translate(1894.423 713.385)" fill="#ebccff"/>
    <circle id="Ellipse_10-5" data-name="Ellipse 10" cx="19.115" cy="19.115" r="19.115" transform="translate(1894.423 656.038)" fill="#ebccff"/>
    <circle id="Ellipse_15-5" data-name="Ellipse 15" cx="19.115" cy="19.115" r="19.115" transform="translate(1779.731 770.731)" fill="#ebccff"/>
    <g id="Group_22" data-name="Group 22" transform="translate(1493 828.077)">
      <circle id="Ellipse_1-3" data-name="Ellipse 1" cx="19.115" cy="19.115" r="19.115" transform="translate(229.385)" fill="#ebccff"/>
      <circle id="Ellipse_2-6" data-name="Ellipse 2" cx="19.115" cy="19.115" r="19.115" transform="translate(0 57.346)" fill="#ebccff"/>
      <circle id="Ellipse_3-6" data-name="Ellipse 3" cx="19.115" cy="19.115" r="19.115" fill="#ebccff"/>
      <circle id="Ellipse_4-6" data-name="Ellipse 4" cx="19.115" cy="19.115" r="19.115" transform="translate(57.346 114.692)" fill="#ebccff"/>
      <circle id="Ellipse_5-6" data-name="Ellipse 5" cx="19.115" cy="19.115" r="19.115" transform="translate(114.692 114.692)" fill="#ebccff"/>
      <circle id="Ellipse_6-6" data-name="Ellipse 6" cx="19.115" cy="19.115" r="19.115" transform="translate(57.346 57.346)" fill="#ebccff"/>
      <circle id="Ellipse_7-6" data-name="Ellipse 7" cx="19.115" cy="19.115" r="19.115" transform="translate(57.346)" fill="#ebccff"/>
      <circle id="Ellipse_8-3" data-name="Ellipse 8" cx="19.115" cy="19.115" r="19.115" transform="translate(172.038 114.692)" fill="#ebccff"/>
      <circle id="Ellipse_9-6" data-name="Ellipse 9" cx="19.115" cy="19.115" r="19.115" transform="translate(114.692 57.346)" fill="#ebccff"/>
      <circle id="Ellipse_10-6" data-name="Ellipse 10" cx="19.115" cy="19.115" r="19.115" transform="translate(114.692)" fill="#ebccff"/>
      <circle id="Ellipse_11-3" data-name="Ellipse 11" cx="19.115" cy="19.115" r="19.115" transform="translate(229.385 114.692)" fill="#ebccff"/>
      <circle id="Ellipse_12-3" data-name="Ellipse 12" cx="19.115" cy="19.115" r="19.115" transform="translate(172.038 57.346)" fill="#ebccff"/>
      <circle id="Ellipse_13-3" data-name="Ellipse 13" cx="19.115" cy="19.115" r="19.115" transform="translate(172.038)" fill="#ebccff"/>
      <circle id="Ellipse_14-3" data-name="Ellipse 14" cx="19.115" cy="19.115" r="19.115" transform="translate(229.385 57.346)" fill="#ebccff"/>
      <circle id="Ellipse_15-6" data-name="Ellipse 15" cx="19.115" cy="19.115" r="19.115" transform="translate(0 114.692)" fill="#ebccff"/>
    </g>
  </g>
</svg>
